<svg xmlns="http://www.w3.org/2000/svg" xmlns:xlink="http://www.w3.org/1999/xlink" version="1.1" x="0px" y="0px" viewBox="0 0 100 125" enable-background="new 0 0 100 100" xml:space="preserve"><g><g><circle fill="#000000" cx="24.125" cy="54" r="1"/><circle fill="#000000" cx="25.5" cy="60.5" r="1"/><circle fill="#000000" cx="29.75" cy="58" r="1"/><circle fill="#000000" cx="30.625" cy="65" r="1"/><circle fill="#000000" cx="36" cy="62" r="1"/><circle fill="#000000" cx="41" cy="64.5" r="1"/><circle fill="#000000" cx="30" cy="51.75" r="1"/><circle fill="#000000" cx="36.375" cy="55.875" r="1"/><circle fill="#000000" cx="37.375" cy="50.25" r="1"/><circle fill="#000000" cx="32" cy="46.5" r="1"/><circle fill="#000000" cx="39.5" cy="42.83301" r="1"/><circle fill="#000000" cx="34.5" cy="38.83301" r="1"/><circle fill="#000000" cx="47.8335" cy="42.66699" r="1"/><circle fill="#000000" cx="21.6665" cy="43" r="1"/><circle fill="#000000" cx="28.3335" cy="41.5" r="1"/><circle fill="#000000" cx="19.8335" cy="53.16699" r="1"/><circle fill="#000000" cx="43.75" cy="48" r="1"/><circle fill="#000000" cx="41.75" cy="55.25" r="1"/><circle fill="#000000" cx="23.375" cy="48.75" r="1"/><path fill="#000000" d="M86.40039,51.21973c-3.58496-5.11426-9.76758-8.7666-16.96289-10.02246    c-3.25293-0.56738-9.96875-1.35742-14.71094,0.65234c-1.20605-4.37012-4.16602-7.72949-7.03955-10.97363l-0.45166-0.51074    c-2.50195-2.83203-6.37939-6.56348-11.41699-6.83887l-0.07178-0.85938c-0.0459-0.55078-0.52832-0.96484-1.07959-0.91309    c-0.55029,0.0459-0.95947,0.52832-0.91357,1.0791l0.06348,0.7627c-6.70801,0.81836-10.62451,7.12695-13.84131,12.33789    c-2.75439,4.46191-5.82373,11.35742-4.7998,18.86719c0.86768,6.36328,5.41504,12.6377,11.05762,15.25879    c2.64551,1.22852,5.44971,1.70508,8.28516,1.70508c4.28271,0,8.63477-1.08691,12.60889-2.30859    c0.12012-0.03711,0.22412-0.09961,0.31738-0.17285c0.77002,1.2793,1.7168,2.47656,2.85596,3.56738    C53.06445,75.5,59.9375,81.1123,68.50391,81.1123c1.09277,0,2.21289-0.09082,3.35547-0.29102    c7.73828-1.3584,14.66797-7.54297,16.85059-15.04199c0.01074-0.03711,0.00293-0.07422,0.00977-0.11133    c0.5-0.98633,0.89062-2.0127,1.13086-3.07129C90.87793,58.07129,87.46973,52.74414,86.40039,51.21973z M69.09375,43.16797    c6.67578,1.16406,12.38672,4.51758,15.66992,9.2002c1.86719,2.66309,3.80859,6.82422,3.13574,9.78516    c-0.74023,3.26172-3.02344,6.24512-6.26367,8.18652c-4.00684,2.40137-10.15723,1.86426-14.20703,0.6748    c-5.40625-1.58691-12.71191-6.86426-15.60156-13.51855c-1.59424-3.67383-1.59229-7.14844,0.00586-10.32715    c0.19727-0.39062,0.42285-0.77734,0.66992-1.14844C55.69629,41.24609,66.00977,42.62988,69.09375,43.16797z M27.07617,68.24512    c-5.05957-2.34961-9.13818-7.98926-9.91895-13.71387c-0.94336-6.92285,1.9375-13.36328,4.54297-17.58301    c3.31396-5.36816,7.06689-11.44922,13.5166-11.44922c0.03516,0,0.0708,0.00098,0.10645,0.00098    c4.47363,0.04688,8.08545,3.55469,10.41309,6.18945l0.45312,0.51172c2.76953,3.12695,5.63281,6.36035,6.67578,10.38281    c0.02246,0.08594,0.07031,0.15723,0.1123,0.23145c-0.83203,0.56543-1.56836,1.24414-2.13721,2.09473    c-0.06641,0.09961-0.11621,0.20703-0.17969,0.30859c-0.03857,0.04102-0.08643,0.06934-0.11865,0.11816    c-1.21875,1.8291-3.4126,5.38086-4.41357,8.61719c-1.53857,4.9707-1.37012,9.62305,0.40625,13.59082    C40.29492,69.46387,33.10352,71.0459,27.07617,68.24512z M71.51367,78.85059c-6.38379,1.12598-13.7959-1.66309-19.8291-7.44336    c-4.47314-4.28613-5.73389-10.11719-3.646-16.86133c0.17529-0.56543,0.40039-1.14453,0.64355-1.72363    c0.08887,1.79395,0.51123,3.62793,1.31104,5.46973c3.16504,7.29004,10.88379,12.88379,16.87305,14.64258    c2.21191,0.64941,4.8623,1.09961,7.52539,1.09961c2.93457,0,5.88281-0.54785,8.27148-1.97949    c0.28809-0.17285,0.55762-0.36523,0.83203-0.55273C80.52832,75.26367,76.18848,78.03125,71.51367,78.85059z"/><path fill="#000000" d="M57.5918,62.75293c1.05566,0.92285,4.63184,2.83398,5.96094,2.9707    c0.15527,0.06934,0.55957,0.46387,0.85547,0.75293c1.03809,1.01367,2.68262,2.62012,5.04883,2.62012    c0.35645,0,0.73047-0.03711,1.12012-0.11719c0.85059-0.17578,1.6875-0.32422,2.47852-0.46387    c2.97266-0.52637,5.12012-0.90723,5.92676-2.25098c0.17578-0.29297,1.15234-0.84766,1.86523-1.25293    c1.58105-0.89746,3.37305-1.91602,3.85645-3.46387c0.48242-1.54199,0.04688-4.07812-1.03613-6.0293    c-0.84961-1.53223-1.9873-2.52148-3.29102-2.86133c-0.79199-0.20703-1.39355-1.31738-2.03027-2.49316    c-1.07715-1.99023-2.4043-4.49219-5.65234-4.28711c-1.98926,0.10352-3.78809-0.21777-5.37402-0.50684    c-2.01953-0.36914-3.61523-0.66016-4.70312,0.23047c-0.87695,0.7168-2.47461,0.10352-2.48633,0.09961    c-0.50977-0.20703-1.09473,0.0332-1.30566,0.54395c-0.20996,0.51074,0.0332,1.0957,0.54395,1.30566    c0.06348,0.02539,0.94141,0.37695,2.02051,0.39355l4.29102,6.12988C65.875,54.35156,66.18555,54.5,66.50098,54.5    c0.19824,0,0.39844-0.05859,0.57227-0.18066c0.45312-0.31641,0.5625-0.94043,0.24609-1.39258l-3.84668-5.49512    c0.13965-0.08203,0.27734-0.17383,0.41016-0.28223c0.37207-0.30664,1.80957-0.04297,3.07812,0.18848    c0.44336,0.08105,0.9209,0.16504,1.41992,0.24609L68.5,54.14355c0.00977,0.5459,0.45605,0.98145,1,0.98145    c0.00586,0,0.01172,0,0.01855,0c0.55176-0.00977,0.99121-0.46582,0.98145-1.01855l-0.11426-6.28418    c0.77344,0.06445,1.57422,0.09961,2.41992,0.05078c1.84082-0.09277,2.6543,1.1582,3.78223,3.24316    c0.10547,0.19531,0.21191,0.3916,0.32031,0.58594l-4.26172,1.6123c-0.5166,0.19531-0.77734,0.77246-0.58203,1.28906    C72.21582,55.00391,72.59668,55.25,73,55.25c0.11816,0,0.2373-0.02051,0.35352-0.06445l4.625-1.75    c0.02637-0.00977,0.04297-0.03125,0.06836-0.04297c0.49121,0.56055,1.07129,1.00391,1.82617,1.2002    c0.75,0.19531,1.47656,0.86914,2.0459,1.89551c0.50195,0.90625,0.80371,1.95312,0.91992,2.85156l-8.36133-3.15039    c-0.51758-0.19531-1.09473,0.06641-1.28809,0.58301c-0.19531,0.5166,0.06641,1.09375,0.58301,1.28809l8.625,3.25    c0.05762,0.02148,0.11523,0.02148,0.17383,0.03125c-0.52441,0.68359-1.76074,1.39062-2.71191,1.93164    c-1.10352,0.62598-2.04883,1.1748-2.51953,1.87305c-0.02637-0.05957-0.03906-0.12305-0.07812-0.17871l-5.13477-7.33203    c-0.31641-0.45312-0.94238-0.5625-1.39258-0.24609c-0.45312,0.31738-0.5625,0.94043-0.24609,1.39258l5.04395,7.20215    c-0.85645,0.21289-1.89648,0.39746-2.8252,0.56152c-0.5166,0.0918-1.05566,0.18945-1.60156,0.29297    c0.00879-0.09668,0.01953-0.19336-0.00195-0.29297l-1.75-8.375c-0.11328-0.54004-0.64746-0.89355-1.18262-0.77441    c-0.54102,0.1123-0.8877,0.64258-0.77441,1.18262l1.75,8.375c0.00879,0.04102,0.03223,0.07422,0.04492,0.11328    c-1.42578-0.12305-2.49707-1.15332-3.38574-2.02148c-0.69336-0.67676-1.24023-1.21191-1.94531-1.29004    c-0.66113-0.07324-2.73926-1.07129-4.05859-1.88672l5.95312-2.44434c0.51074-0.20996,0.75488-0.79395,0.54492-1.30469    c-0.20898-0.51172-0.7959-0.75684-1.30469-0.54492l-6.79297,2.79004c-0.83691-1.24902-1.85645-3.28516-2.30762-4.1875    c-0.39648-0.79395-0.38379-1.83203-0.2959-3.17969l9.42285,3.5625C65.1377,56.60449,65.25684,56.625,65.375,56.625    c0.40332,0,0.78418-0.24609,0.93555-0.64648c0.19531-0.5166-0.06543-1.09375-0.58203-1.28906l-9.99512-3.77832    c0.00488-0.08301,0.01172-0.15332,0.01562-0.23828c0.03027-0.6416,0.28223-0.84668,0.36523-0.91406    c0.42773-0.3457,1.22559-0.31348,1.46973-0.27246c0.54395,0.08594,1.05664-0.27344,1.15137-0.81543    c0.09473-0.54395-0.26953-1.06152-0.81445-1.15625c-0.18652-0.03223-1.8457-0.28809-3.05273,0.67969    c-0.47559,0.38184-1.05664,1.10449-1.11719,2.38281c-0.02637,0.56152-0.06543,1.08789-0.10156,1.58398    c-0.13574,1.87305-0.25391,3.49121,0.45605,4.91113C55.23633,59.33496,56.53223,61.82617,57.5918,62.75293z"/></g></g><text x="0" y="115" fill="#000000" font-size="5px" font-weight="bold" font-family="'Helvetica Neue', Helvetica, Arial-Unicode, Arial, Sans-serif">Created by Yu luck</text><text x="0" y="120" fill="#000000" font-size="5px" font-weight="bold" font-family="'Helvetica Neue', Helvetica, Arial-Unicode, Arial, Sans-serif">from the Noun Project</text></svg>